# xmcd CD database file
#
# Track frame offsets:
#	150
#	5116
#	17272
#	25903
#	44881
#	63412
#	78374
#	91603
#	112682
#	136333
#	153314
#	170596
#	181836
#	192697
#	201552
#	208945
#	228639
#	249268
#
# Disc length: 3540 seconds
#
# Revision: 0
# Processed by: cddbd v1.5.1PL0 Copyright (c) Steve Scherf et al.
# Submitted via: CDex 1.51
#
DISCID=f20dd212
DTITLE=山内昌也 - 沖縄の謡い
DYEAR=2003
DGENRE=Ethnic
TTITLE0=渡りザウ
TTITLE1=安波節
TTITLE2=子守節
TTITLE3=上り口説
TTITLE4=秋の踊り
TTITLE5=かたみ節
TTITLE6=四季口説
TTITLE7=デンサー節
TTITLE8=安里屋ユンタ
TTITLE9=−花−
TTITLE10=かぎやで風節
TTITLE11=恩納節
TTITLE12=辺野喜節
TTITLE13=中城はんた前節
TTITLE14=謝敷節
TTITLE15=島人ぬ宝
TTITLE16=島唄
TTITLE17=涙そうそう
EXTD=YEAR: 2003
EXTT0=
EXTT1=
EXTT2=
EXTT3=
EXTT4=
EXTT5=
EXTT6=
EXTT7=
EXTT8=
EXTT9=
EXTT10=
EXTT11=
EXTT12=
EXTT13=
EXTT14=
EXTT15=
EXTT16=
EXTT17=
PLAYORDER=
